<?xml version="1.0" encoding="UTF-8"?><svg id="Layer_1" xmlns="http://www.w3.org/2000/svg" viewBox="0 0 48 48"><defs><style>.cls-1{fill:#cdd6f4;}</style></defs><rect class="cls-1" width="48" height="48" rx="9.24" ry="9.24"/><g><path d="M6.27,32.45l1.57-19.82c.05-.58,.07-1.06,.07-1.44,0-.6-.14-1.05-.42-1.33-.28-.28-.77-.44-1.48-.48l.26-.63H15.64l-.19,.63h-.46c-.62,0-1.11,.2-1.5,.61s-.61,1.16-.69,2.26l-.91,11.76,6.99-9.55,.17-2.2c.05-.46,.07-.82,.07-1.09,0-.56-.15-.99-.45-1.28-.3-.3-.8-.46-1.5-.5l.17-.63h9.43l-.19,.63c-.83,0-1.45,.2-1.85,.61-.4,.4-.64,1.16-.73,2.26l-.89,11.76,6.73-9.26c1.15-1.58,1.86-2.66,2.14-3.23,.19-.39,.29-.72,.29-.99s-.13-.5-.38-.71c-.26-.21-.75-.36-1.48-.44l.17-.63h6.19l-.15,.63c-.56,.1-1.02,.3-1.38,.58-.51,.4-1.18,1.16-2,2.29l-14.71,20.2h-1.01l1.18-15.64-11.4,15.64h-1.03Z"/><path d="M28.09,41.26V23.63h6.95c1.33,0,2.47,.24,3.41,.71s1.66,1.14,2.16,2c.5,.86,.74,1.88,.74,3.04s-.25,2.18-.76,3.02c-.5,.84-1.23,1.48-2.19,1.93-.95,.45-2.11,.67-3.46,.67h-4.66v-2.99h4.05c.71,0,1.3-.1,1.77-.29,.47-.19,.82-.49,1.05-.88,.23-.39,.35-.87,.35-1.45s-.12-1.08-.35-1.48-.59-.71-1.06-.92-1.07-.31-1.79-.31h-2.51v14.58h-3.73Zm9.52-8.02l4.38,8.02h-4.11l-4.29-8.02h4.02Z"/></g></svg>